<svg width="150" height="150" viewBox="0 0 150 150" fill="none" xmlns="http://www.w3.org/2000/svg">
<path d="M136.43 5.94141H13.5703C11.5501 5.94141 9.61265 6.74393 8.18415 8.17243C6.75565 9.60093 5.95313 11.5384 5.95312 13.5586V136.43C5.95313 138.45 6.75565 140.387 8.18415 141.816C9.61265 143.244 11.5501 144.047 13.5703 144.047H79.6875V90.5742H61.7109V69.7266H79.6875V54.3516C79.6875 36.5156 90.5859 26.8008 106.5 26.8008C111.87 26.7816 117.238 27.0555 122.578 27.6211V46.2656H111.574C102.914 46.2656 101.238 50.3789 101.238 56.4141V69.7266H121.875L119.191 90.5742H101.238V144.059H136.395C138.414 144.055 140.349 143.252 141.777 141.824C143.205 140.396 144.009 138.461 144.012 136.441V13.5703C144.015 11.5542 143.219 9.619 141.797 8.18897C140.376 6.75894 138.446 5.95071 136.43 5.94141Z" fill="#2E2337"/>
</svg>
