<svg width="300" height="300" viewBox="0 0 300 300" fill="none" xmlns="http://www.w3.org/2000/svg">
<path d="M262.5 100V87.5L225 112.5L187.5 87.5V100L225 125L262.5 100ZM275 37.5H25C11.25 37.5 0 48.75 0 62.5V237.5C0 251.25 11.25 262.5 25 262.5H275C288.75 262.5 299.875 251.25 299.875 237.5L300 62.5C300 48.75 288.75 37.5 275 37.5ZM100 75C120.75 75 137.5 91.75 137.5 112.5C137.5 133.25 120.75 150 100 150C79.25 150 62.5 133.25 62.5 112.5C62.5 91.75 79.25 75 100 75ZM175 225H25V212.5C25 187.5 75 173.75 100 173.75C125 173.75 175 187.5 175 212.5V225ZM275 150H175V75H275V150Z" fill="white"/>
</svg>
