<svg width="300" height="300" viewBox="0 0 300 300" fill="none" xmlns="http://www.w3.org/2000/svg">
<g clip-path="url(#clip0_3_129)">
<path d="M150 30C83.85 30 30 83.85 30 150C30 216.15 83.85 270 150 270C166.5 270 180 256.5 180 240C180 232.65 177.3 225.6 172.35 219.9C168.75 215.4 172.05 210 176.85 210H198.15C237.9 210 270.15 177.75 270.15 138C270 78.45 216.15 30 150 30ZM198 187.5H176.7C160.95 187.5 148.2 200.25 148.2 216C148.2 223.05 151.05 229.8 155.25 234.75C160.35 240.6 155.55 247.5 149.85 247.5C96.15 247.5 52.35 203.7 52.35 150C52.35 96.3 96.3 52.5 150 52.5C203.7 52.5 247.5 90.9 247.5 138C247.5 165.3 225.3 187.5 198 187.5Z" fill="white"/>
<path d="M217.5 161.25C227.855 161.25 236.25 152.855 236.25 142.5C236.25 132.145 227.855 123.75 217.5 123.75C207.145 123.75 198.75 132.145 198.75 142.5C198.75 152.855 207.145 161.25 217.5 161.25Z" fill="white"/>
<path d="M180 116.25C190.355 116.25 198.75 107.855 198.75 97.5C198.75 87.1447 190.355 78.75 180 78.75C169.645 78.75 161.25 87.1447 161.25 97.5C161.25 107.855 169.645 116.25 180 116.25Z" fill="white"/>
<path d="M82.5 161.25C92.8553 161.25 101.25 152.855 101.25 142.5C101.25 132.145 92.8553 123.75 82.5 123.75C72.1447 123.75 63.75 132.145 63.75 142.5C63.75 152.855 72.1447 161.25 82.5 161.25Z" fill="white"/>
<path d="M120 116.25C130.355 116.25 138.75 107.855 138.75 97.5C138.75 87.1447 130.355 78.75 120 78.75C109.645 78.75 101.25 87.1447 101.25 97.5C101.25 107.855 109.645 116.25 120 116.25Z" fill="white"/>
</g>
<defs>
<clipPath id="clip0_3_129">
<rect width="300" height="300" fill="white"/>
</clipPath>
</defs>
</svg>
