<svg width="300" height="300" viewBox="0 0 300 300" fill="none" xmlns="http://www.w3.org/2000/svg">
<g clip-path="url(#clip0_3_130)">
<path d="M75 187.5C64.625 187.5 55.25 191.75 48.5 198.5C33.75 213.25 25 275 25 275C25 275 86.75 266.25 101.5 251.5C108.25 244.75 112.5 235.375 112.5 225C112.5 204.25 95.75 187.5 75 187.5ZM83.875 233.875C80.375 237.375 56.75 243.375 56.75 243.375C56.75 243.375 62.625 219.875 66.25 216.25C68.375 213.875 71.5 212.5 75 212.5C81.875 212.5 87.5 218.125 87.5 225C87.5 228.5 86.125 231.625 83.875 233.875ZM217.75 170.625C297.25 91.1248 270.75 29.2498 270.75 29.2498C270.75 29.2498 208.875 2.74977 129.375 82.2498L98.25 75.9998C90.125 74.3748 81.625 76.9998 75.625 82.8748L25 133.625L87.5 160.375L139.625 212.5L166.375 275L217 224.375C222.875 218.5 225.5 210 223.875 201.75L217.75 170.625ZM92.625 135.375L68.75 125.125L93.375 100.5L111.375 104.125C104.25 114.5 97.875 125.375 92.625 135.375ZM174.875 231.25L164.625 207.375C174.625 202.125 185.5 195.75 195.75 188.625L199.375 206.625L174.875 231.25ZM200 153C183.5 169.5 157.75 183 149.5 187.125L112.875 150.5C116.875 142.375 130.375 116.625 147 99.9998C205.5 41.4998 249.875 50.1248 249.875 50.1248C249.875 50.1248 258.5 94.4998 200 153ZM187.5 137.5C201.25 137.5 212.5 126.25 212.5 112.5C212.5 98.7498 201.25 87.4998 187.5 87.4998C173.75 87.4998 162.5 98.7498 162.5 112.5C162.5 126.25 173.75 137.5 187.5 137.5Z" fill="white"/>
</g>
<defs>
<clipPath id="clip0_3_130">
<rect width="300" height="300" fill="white"/>
</clipPath>
</defs>
</svg>
