<svg width="150" height="150" viewBox="0 0 150 150" fill="none" xmlns="http://www.w3.org/2000/svg">
<path d="M110.895 69.5188C110.245 69.2097 109.589 68.9138 108.927 68.6312C107.77 47.2937 96.1141 35.0812 76.5391 34.9562H76.2766C64.5641 34.9562 54.8328 39.9563 48.8391 49.05L59.6016 56.4313C64.0766 49.6375 71.1016 48.1875 76.2828 48.1875H76.4578C82.9016 48.2313 87.7703 50.1063 90.9141 53.7625C93.2078 56.4188 94.7391 60.1 95.4953 64.7375C89.3819 63.7448 83.176 63.445 76.9953 63.8438C58.3891 64.9188 46.4203 75.7688 47.2266 90.85C47.6328 98.5 51.4453 105.081 57.9578 109.381C63.4578 113.019 70.5516 114.794 77.9266 114.394C87.6578 113.856 95.2891 110.144 100.614 103.356C104.664 98.2 107.22 91.5187 108.352 83.1C112.989 85.9 116.427 89.5813 118.327 94.0063C121.558 101.538 121.745 113.906 111.652 123.987C102.808 132.825 92.1766 136.644 76.1141 136.762C58.2953 136.637 44.8141 130.919 36.0516 119.781C27.8453 109.344 23.6078 94.2813 23.4516 75C23.6078 55.7187 27.8453 40.65 36.0516 30.2188C44.8141 19.0813 58.2891 13.3688 76.1141 13.2375C94.0578 13.3625 107.77 19.1125 116.87 30.3C121.333 35.7938 124.695 42.6938 126.914 50.7375L139.527 47.375C136.839 37.4687 132.608 28.9375 126.858 21.8562C115.189 7.5 98.1266 0.15 76.1578 0H76.0703C54.1266 0.15 37.2703 7.53125 25.9391 21.9375C15.8516 34.75 10.6516 52.5937 10.4766 74.95V75.05C10.6516 97.4125 15.8516 115.244 25.9328 128.062C37.2641 142.469 54.1328 149.85 76.0703 150H76.1578C95.6578 149.863 109.402 144.756 120.72 133.444C135.539 118.644 135.095 100.094 130.208 88.7062C126.708 80.5375 120.027 73.9063 110.895 69.5188ZM77.2266 101.175C69.0703 101.637 60.6016 97.975 60.1766 90.1375C59.8641 84.325 64.3141 77.8312 77.7266 77.0625C79.2641 76.9687 80.7703 76.9313 82.2516 76.9313C87.1266 76.9313 91.6766 77.4 95.8203 78.3063C94.2766 97.6063 85.2141 100.737 77.2266 101.175Z" fill="#2E2337"/>
</svg>
