<svg width="150" height="150" viewBox="0 0 150 150" fill="none" xmlns="http://www.w3.org/2000/svg">
<g clip-path="url(#clip0_27_33)">
<path d="M112.5 71.5385C113.654 73.2692 114.808 75 115.385 77.8846H96.9231C96.9231 77.3077 96.9231 76.1538 97.5 75C98.0769 73.8462 98.0769 73.2692 99.2308 72.1154C99.8077 70.9615 100.962 70.3846 102.115 69.8077C103.269 69.2308 105 68.6538 106.731 68.6538C109.038 69.2308 111.346 69.8077 112.5 71.5385ZM59.4231 67.5C60.5769 66.3462 61.7308 64.6154 61.7308 62.3077C61.7308 61.1538 61.7308 60 61.1539 58.8462C60.5769 58.2692 60 57.1154 59.4231 57.1154C58.8462 56.5385 57.6923 56.5385 56.5385 55.9615H41.5385V69.2308H54.2308C55.9615 69.2308 57.6923 68.6538 59.4231 67.5ZM54.8077 77.3077H41.5385V92.8846H54.8077C55.9615 92.8846 57.1154 92.8846 58.2692 92.3077C59.4231 92.3077 60.5769 91.7308 61.1539 91.1538C61.7308 90.5769 62.8846 90 63.4615 88.8462C64.0385 87.6923 64.0385 86.5385 64.0385 85.3846C64.0385 82.5 63.4615 80.1923 61.7308 79.0385C60 77.8846 57.6923 77.3077 54.8077 77.3077ZM150 28.2692V121.731C150 137.308 137.308 150 121.731 150H28.2692C12.6923 150 0 137.308 0 121.731V28.2692C0 12.6923 12.6923 0 28.2692 0H121.731C137.308 0 150 12.6923 150 28.2692ZM94.6154 55.3846H117.692V49.6154H94.6154V55.3846ZM76.1538 86.5385C76.1538 83.0769 75.5769 80.1923 73.8462 77.3077C72.1154 75 69.8077 73.2692 66.3462 72.1154C68.6538 70.9615 70.9615 69.2308 72.1154 67.5C73.2692 65.7692 73.8462 63.4615 73.8462 60.5769C73.8462 57.6923 73.2692 55.9615 72.6923 53.6538C71.5385 51.9231 70.3846 50.1923 69.2308 49.6154C67.5 48.4615 65.7692 47.8846 63.4615 47.3077C60.5769 46.1538 58.2692 46.1538 55.3846 46.1538H28.8462V102.692H56.5385C58.8462 102.692 61.7308 102.115 64.0385 101.538C66.3462 100.962 68.6538 99.8077 70.3846 98.6538C72.1154 97.5 73.8462 95.7692 75 93.4615C75.5769 91.7308 76.1538 89.4231 76.1538 86.5385ZM96.9231 84.8077H126.346C126.346 81.3462 126.346 78.4615 125.769 75.5769C125.192 72.6923 124.038 69.8077 122.308 68.0769C120.577 65.7692 118.269 64.0385 115.962 62.8846C113.077 61.7308 110.192 60.5769 106.731 60.5769C103.846 60.5769 100.962 61.1538 98.0769 62.3077C95.7692 63.4615 93.4615 65.1923 91.1538 66.9231C89.4231 68.6538 87.6923 70.9615 87.1154 73.8462C85.9615 76.7308 85.3846 79.6154 85.3846 82.5C85.3846 85.3846 85.9615 88.8462 87.1154 91.1538C88.2692 94.0385 89.4231 96.3462 91.1538 98.0769C92.8846 99.8077 95.1923 101.538 97.5 102.692C100.385 103.846 103.269 104.423 106.154 104.423C110.769 104.423 114.808 103.269 118.269 100.962C121.731 98.6538 124.038 95.1923 125.769 90.5769H115.962C115.385 91.7308 114.808 92.8846 113.077 94.0385C111.346 95.1923 109.615 95.7692 107.308 95.7692C104.423 95.7692 101.538 95.1923 99.8077 93.4615C98.0769 91.1539 96.9231 88.2692 96.9231 84.8077Z" fill="#2E2337"/>
</g>
<defs>
<clipPath id="clip0_27_33">
<rect width="150" height="150" fill="white"/>
</clipPath>
</defs>
</svg>
